<svg xmlns="http://www.w3.org/2000/svg" viewBox="0 0 100 100">
  <rect width="100" height="100" fill="#c2410c"/>
  <polygon points="20,52 28,18 46,46" fill="#fbbf24"/>
  <polygon points="80,52 72,18 54,46" fill="#fbbf24"/>
  <polygon points="24,50 30,24 43,44" fill="#fda4af" opacity="0.6"/>
  <polygon points="76,50 70,24 57,44" fill="#fda4af" opacity="0.6"/>
  <circle cx="50" cy="60" r="30" fill="#fde68a"/>
  <ellipse cx="40" cy="56" rx="7.5" ry="8.5" fill="#22c55e"/>
  <ellipse cx="60" cy="56" rx="7.5" ry="8.5" fill="#22c55e"/>
  <ellipse cx="40" cy="57" rx="3.5" ry="6.5" fill="#0f172a"/>
  <ellipse cx="60" cy="57" rx="3.5" ry="6.5" fill="#0f172a"/>
  <circle cx="42" cy="53" r="1.5" fill="white"/>
  <circle cx="62" cy="53" r="1.5" fill="white"/>
  <path d="M47 66 L50 63 L53 66 L50 70Z" fill="#fb7185"/>
  <path d="M44 71 Q50 78 56 71" stroke="#92400e" stroke-width="2" fill="none" stroke-linecap="round"/>
  <line x1="14" y1="61" x2="38" y2="64" stroke="#92400e" stroke-width="1.3"/>
  <line x1="14" y1="67" x2="38" y2="67" stroke="#92400e" stroke-width="1.3"/>
  <line x1="14" y1="73" x2="38" y2="70" stroke="#92400e" stroke-width="1.3"/>
  <line x1="86" y1="61" x2="62" y2="64" stroke="#92400e" stroke-width="1.3"/>
  <line x1="86" y1="67" x2="62" y2="67" stroke="#92400e" stroke-width="1.3"/>
  <line x1="86" y1="73" x2="62" y2="70" stroke="#92400e" stroke-width="1.3"/>
</svg>
