<svg xmlns="http://www.w3.org/2000/svg" viewBox="0 0 100 100">
  <rect width="100" height="100" fill="#7f1d1d"/>
  <path d="M30,32 Q22,10 28,4 Q30,16 38,28Z" fill="#991b1b"/>
  <path d="M70,32 Q78,10 72,4 Q70,16 62,28Z" fill="#991b1b"/>
  <circle cx="28" cy="6" r="3" fill="#fbbf24"/>
  <circle cx="72" cy="6" r="3" fill="#fbbf24"/>
  <ellipse cx="50" cy="62" rx="34" ry="30" fill="#dc2626"/>
  <ellipse cx="50" cy="74" rx="18" ry="13" fill="#ef4444"/>
  <ellipse cx="44" cy="75" rx="3.5" ry="2.5" fill="#7f1d1d"/>
  <ellipse cx="56" cy="75" rx="3.5" ry="2.5" fill="#7f1d1d"/>
  <ellipse cx="38" cy="54" rx="11" ry="10" fill="#fde68a"/>
  <ellipse cx="62" cy="54" rx="11" ry="10" fill="#fde68a"/>
  <ellipse cx="38" cy="55" rx="4.5" ry="7.5" fill="#0f172a"/>
  <ellipse cx="62" cy="55" rx="4.5" ry="7.5" fill="#0f172a"/>
  <circle cx="36" cy="50" r="2" fill="white"/>
  <circle cx="60" cy="50" r="2" fill="white"/>
  <path d="M35 82 Q50 93 65 82" stroke="#7f1d1d" stroke-width="2" fill="#fca5a5" stroke-linecap="round"/>
  <polygon points="43,82 40,90 46,82" fill="white"/>
  <polygon points="57,82 54,90 60,82" fill="white"/>
  <path d="M30 46 Q38 42 46 46" stroke="#991b1b" stroke-width="2.5" fill="none" stroke-linecap="round"/>
  <path d="M54 46 Q62 42 70 46" stroke="#991b1b" stroke-width="2.5" fill="none" stroke-linecap="round"/>
  <ellipse cx="24" cy="68" rx="6" ry="5" fill="#b91c1c" opacity="0.45"/>
  <ellipse cx="76" cy="68" rx="6" ry="5" fill="#b91c1c" opacity="0.45"/>
</svg>
