<svg xmlns="http://www.w3.org/2000/svg" viewBox="0 0 100 100">
  <rect width="100" height="100" fill="#1c1917"/>
  <ellipse cx="50" cy="42" rx="33" ry="36" fill="#78716c"/>
  <ellipse cx="38" cy="25" rx="10" ry="8" fill="#a8a29e" opacity="0.35"/>
  <rect x="27" y="41" width="46" height="11" rx="3" fill="#0c0a09"/>
  <rect x="44" y="41" width="12" height="26" rx="3" fill="#0c0a09"/>
  <circle cx="37" cy="47" r="5" fill="#fbbf24"/>
  <circle cx="63" cy="47" r="5" fill="#fbbf24"/>
  <circle cx="37" cy="47" r="2.8" fill="#d97706"/>
  <circle cx="63" cy="47" r="2.8" fill="#d97706"/>
  <line x1="50" y1="8" x2="50" y2="41" stroke="#a8a29e" stroke-width="3.5"/>
  <ellipse cx="50" cy="8" rx="7" ry="5.5" fill="#d4af37"/>
  <ellipse cx="50" cy="42" rx="33" ry="36" fill="none" stroke="#d4af37" stroke-width="2"/>
  <rect x="24" y="70" width="52" height="16" rx="5" fill="#78716c"/>
  <rect x="24" y="70" width="52" height="16" rx="5" fill="none" stroke="#a8a29e" stroke-width="1"/>
  <line x1="24" y1="78" x2="76" y2="78" stroke="#a8a29e" stroke-width="0.8" opacity="0.5"/>
  <ellipse cx="17" cy="80" rx="16" ry="10" fill="#78716c"/>
  <ellipse cx="83" cy="80" rx="16" ry="10" fill="#78716c"/>
</svg>
