<svg xmlns="http://www.w3.org/2000/svg" viewBox="0 0 100 100">
  <rect width="100" height="100" fill="#0c2340"/>
  <line x1="50" y1="8" x2="50" y2="22" stroke="#38bdf8" stroke-width="2.5"/>
  <circle cx="50" cy="8" r="4" fill="#38bdf8"/>
  <rect x="20" y="22" width="60" height="54" rx="10" fill="#1e3a5f"/>
  <rect x="20" y="22" width="60" height="54" rx="10" fill="none" stroke="#38bdf8" stroke-width="1.5"/>
  <rect x="28" y="33" width="18" height="11" rx="3" fill="#0ea5e9"/>
  <rect x="54" y="33" width="18" height="11" rx="3" fill="#0ea5e9"/>
  <rect x="28" y="33" width="18" height="11" rx="3" fill="#7dd3fc" opacity="0.35"/>
  <rect x="54" y="33" width="18" height="11" rx="3" fill="#7dd3fc" opacity="0.35"/>
  <circle cx="50" cy="52" r="2.5" fill="#38bdf8"/>
  <rect x="30" y="58" width="40" height="9" rx="4" fill="#0c2340"/>
  <line x1="36" y1="58" x2="36" y2="67" stroke="#38bdf8" stroke-width="1.2"/>
  <line x1="43" y1="58" x2="43" y2="67" stroke="#38bdf8" stroke-width="1.2"/>
  <line x1="50" y1="58" x2="50" y2="67" stroke="#38bdf8" stroke-width="1.2"/>
  <line x1="57" y1="58" x2="57" y2="67" stroke="#38bdf8" stroke-width="1.2"/>
  <line x1="64" y1="58" x2="64" y2="67" stroke="#38bdf8" stroke-width="1.2"/>
  <circle cx="20" cy="46" r="5" fill="#1e3a5f" stroke="#38bdf8" stroke-width="1.5"/>
  <circle cx="80" cy="46" r="5" fill="#1e3a5f" stroke="#38bdf8" stroke-width="1.5"/>
  <circle cx="27" cy="70" r="3" fill="#f59e0b"/>
  <circle cx="73" cy="70" r="3" fill="#22c55e"/>
</svg>
