<svg xmlns="http://www.w3.org/2000/svg" viewBox="0 0 100 100">
  <rect width="100" height="100" fill="#064e3b"/>
  <ellipse cx="50" cy="30" rx="26" ry="20" fill="#fbbf24"/>
  <ellipse cx="28" cy="26" rx="9" ry="13" fill="#fbbf24" transform="rotate(-15,28,26)"/>
  <ellipse cx="72" cy="26" rx="9" ry="13" fill="#fbbf24" transform="rotate(15,72,26)"/>
  <ellipse cx="50" cy="15" rx="9" ry="11" fill="#fbbf24"/>
  <circle cx="50" cy="64" r="26" fill="#fed7aa"/>
  <ellipse cx="39" cy="60" rx="12" ry="10.5" fill="#1e293b"/>
  <ellipse cx="61" cy="60" rx="12" ry="10.5" fill="#1e293b"/>
  <rect x="46" y="58" width="8" height="4" rx="2" fill="#1e293b"/>
  <ellipse cx="39" cy="60" rx="9" ry="8" fill="#a5f3fc"/>
  <ellipse cx="61" cy="60" rx="9" ry="8" fill="#a5f3fc"/>
  <ellipse cx="35" cy="56" rx="3.5" ry="3" fill="white" opacity="0.4"/>
  <ellipse cx="57" cy="56" rx="3.5" ry="3" fill="white" opacity="0.4"/>
  <circle cx="39" cy="60" r="4.5" fill="#0e7490"/>
  <circle cx="61" cy="60" r="4.5" fill="#0e7490"/>
  <path d="M27 60 Q22 57 20 52" stroke="#1e293b" stroke-width="3" fill="none"/>
  <path d="M73 60 Q78 57 80 52" stroke="#1e293b" stroke-width="3" fill="none"/>
  <ellipse cx="50" cy="70" rx="3" ry="2.5" fill="#d97706" opacity="0.6"/>
  <path d="M40 78 Q50 88 60 78" stroke="#7c2d12" stroke-width="2" fill="#fde68a" stroke-linecap="round"/>
  <path d="M43 78 Q50 84 57 78" fill="white"/>
  <path d="M24 90 Q38 82 50 88 Q62 82 76 90 L84 100 L16 100Z" fill="white" opacity="0.9"/>
  <line x1="50" y1="88" x2="50" y2="100" stroke="#cbd5e1" stroke-width="1"/>
</svg>
